#N canvas 8 176 840 689 10;
#X obj 86 558 *~;
#X obj 234 168 f;
#X obj 197 559 *~;
#X obj 216 71 bang~;
#X obj 85 416 line~;
#X obj 290 165 +;
#X obj 84 606 outlet~;
#X obj 197 606 outlet~;
#X obj 83 305 b;
#X msg 85 388 0 \, \$1 \$2;
#X obj 446 529 tabreceive~ hann;
#X obj 237 262 * 44.1;
#X obj 87 360 pack 0 11.61;
#X obj 285 141 * 11.61;
#X obj 284 51 r \$1-cont;
#X obj 296 193 >;
#X obj 296 220 change;
#X obj 295 243 sel 1;
#X msg 295 266 0;
#X obj 297 562 *~;
#X obj 409 566 *~;
#X obj 411 608 outlet~;
#X obj 297 610 outlet~;
#X obj 84 502 tabread4~ \$1-L;
#X obj 198 501 tabread4~ \$1-L;
#X obj 296 502 tabread4~ \$1-R;
#X obj 409 504 tabread4~ \$1-R;
#X obj 449 249 table \$1-L;
#X obj 446 270 table \$1-R;
#X obj 442 131 soundfiler;
#X obj 447 54 symbol \$1;
#X obj 446 25 loadbang;
#X msg 446 103 read -resize \$1.wav \$1-L \$1-R;
#X obj 84 463 -~ 512;
#X obj 283 83 route speed;
#X obj 237 321 - 1024;
#X floatatom 297 312 12 0 0 0 - - -, f 12;
#X obj 84 334 f 2048;
#X connect 0 0 6 0;
#X connect 1 0 5 0;
#X connect 1 0 11 0;
#X connect 2 0 7 0;
#X connect 3 0 1 0;
#X connect 4 0 24 0;
#X connect 4 0 26 0;
#X connect 4 0 33 0;
#X connect 5 0 1 1;
#X connect 8 0 37 0;
#X connect 9 0 4 0;
#X connect 10 0 2 1;
#X connect 10 0 0 1;
#X connect 10 0 19 1;
#X connect 10 0 20 1;
#X connect 11 0 15 0;
#X connect 11 0 35 0;
#X connect 11 0 36 0;
#X connect 12 0 9 0;
#X connect 13 0 5 1;
#X connect 14 0 34 0;
#X connect 15 0 16 0;
#X connect 16 0 17 0;
#X connect 17 0 18 0;
#X connect 18 0 1 1;
#X connect 19 0 22 0;
#X connect 20 0 21 0;
#X connect 23 0 0 0;
#X connect 24 0 2 0;
#X connect 25 0 19 0;
#X connect 26 0 20 0;
#X connect 29 0 15 1;
#X connect 30 0 32 0;
#X connect 31 0 30 0;
#X connect 32 0 29 0;
#X connect 33 0 23 0;
#X connect 33 0 25 0;
#X connect 34 0 13 0;
#X connect 35 0 8 0;
#X connect 35 0 23 1;
#X connect 35 0 24 1;
#X connect 35 0 25 1;
#X connect 35 0 26 1;
#X connect 37 0 12 0;
