#N canvas 258 253 451 697 10;
#X obj 51 477 *~;
#X obj 18 477 *~;
#X obj 18 499 -~;
#X obj 167 475 *~;
#X obj 136 475 *~;
#X obj 136 497 +~;
#X obj 109 193 *~;
#X obj 78 193 *~;
#X obj 50 193 *~;
#X obj 19 193 *~;
#X obj 19 218 +~;
#X obj 127 379 *~;
#X obj 238 430 rfft~;
#X obj 108 161 rfft~;
#X obj 19 564 rifft~;
#X obj 21 646 outlet~;
#X obj 97 379 *~;
#X obj 97 401 +~;
#X obj 124 218 -~;
#X obj 18 431 *~;
#X obj 51 432 *~;
#X obj 19 349 +~ 1e-15;
#X obj 19 598 *~;
#X obj 97 425 q8_rsqrt~;
#N canvas 304 23 413 603 read-windows 0;
#X obj 17 492 *~;
#X obj 165 102 f;
#X obj 194 494 *~;
#X obj 147 5 bang~;
#X obj 16 350 line~;
#X obj 221 99 +;
#X obj 50 396 / 4;
#X floatatom 284 347 7 0 0 0 - - -, f 7;
#X obj 281 258 + 69;
#X obj 282 279 mtof;
#X obj 282 301 / 440;
#X obj 18 518 outlet~;
#X obj 194 519 outlet~;
#X obj 205 255 / 2;
#X obj 168 255 -;
#X obj 15 396 -~;
#X obj 15 268 f;
#X obj 14 239 b;
#X msg 16 322 0 \, \$1 \$2;
#X obj 216 463 tabreceive~ hann;
#X obj 168 196 * 44.1;
#X obj 284 323 * 2048;
#X obj 15 436 tabread4~ \$1;
#X obj 195 436 tabread4~ \$1;
#X obj 18 294 pack 0 11.61;
#X obj 216 75 * 11.61;
#X obj 214 17 route speed trans;
#X obj 215 -15 r \$1-cont;
#X obj 312 86 inlet;
#X obj 227 127 >;
#X obj 227 154 change;
#X obj 226 177 sel 1;
#X msg 226 200 0;
#X connect 0 0 11 0;
#X connect 1 0 5 0;
#X connect 1 0 20 0;
#X connect 2 0 12 0;
#X connect 3 0 1 0;
#X connect 4 0 15 0;
#X connect 4 0 23 0;
#X connect 5 0 1 1;
#X connect 6 0 15 1;
#X connect 7 0 6 0;
#X connect 7 0 13 0;
#X connect 7 0 16 1;
#X connect 8 0 9 0;
#X connect 9 0 10 0;
#X connect 10 0 21 0;
#X connect 13 0 14 1;
#X connect 14 0 17 0;
#X connect 14 0 22 1;
#X connect 14 0 23 1;
#X connect 15 0 22 0;
#X connect 16 0 24 0;
#X connect 17 0 16 0;
#X connect 18 0 4 0;
#X connect 19 0 2 1;
#X connect 19 0 0 1;
#X connect 20 0 14 0;
#X connect 20 0 29 0;
#X connect 21 0 7 0;
#X connect 22 0 0 0;
#X connect 23 0 2 0;
#X connect 24 0 18 0;
#X connect 25 0 5 1;
#X connect 26 0 25 0;
#X connect 26 1 8 0;
#X connect 27 0 26 0;
#X connect 28 0 29 1;
#X connect 29 0 30 0;
#X connect 30 0 31 0;
#X connect 31 0 32 0;
#X connect 32 0 1 1;
#X restore 109 133 pd read-windows;
#X obj 121 69 *~;
#X obj 89 69 *~;
#X obj 89 91 +~;
#X obj 159 94 q8_rsqrt~;
#X obj 159 71 +~ 1e-20;
#X obj 73 119 *~;
#X obj 19 118 *~;
#X obj 29 245 lrshift~ 1;
#X obj 24 269 lrshift~ -1;
#X obj 141 245 lrshift~ 1;
#X obj 133 269 lrshift~ -1;
#X obj 19 325 +~;
#X obj 125 331 +~;
#X obj 52 598 tabreceive~ hann;
#N canvas 0 22 450 300 (subpatch) 0;
#X array \$0-prev-imag 1024 float 0;
#X coords 0 1000 1023 -1000 100 75 1 0 0;
#X restore 279 153 graph;
#N canvas 0 22 450 300 (subpatch) 0;
#X array \$0-prev-real 1024 float 0;
#X coords 0 500 1023 -500 100 75 1 0 0;
#X restore 279 47 graph;
#X obj 73 29 tabreceive~ \$0-prev-imag;
#X obj 20 7 tabreceive~ \$0-prev-real;
#X obj 137 543 tabsend~ \$0-prev-imag;
#X obj 136 567 tabsend~ \$0-prev-real;
#X obj 20 622 *~ 0.00032552;
#X obj 271 255 table \$1;
#X obj 286 429 soundfiler;
#X msg 284 402 read -resize \$1 \$2;
#X obj 316 283 loadbang, f 14;
#X obj 287 377 pack s s;
#X obj 355 340 symbol \$1;
#X obj 285 341 symbol \$2;
#X obj 316 312 t b b;
#X obj 374 311 bng 15 250 50 0 empty empty empty 17 7 0 10 -262144
-1 -1;
#X obj 289 453 block~ 2048 4;
#X connect 0 0 2 1;
#X connect 1 0 2 0;
#X connect 2 0 14 0;
#X connect 2 0 44 0;
#X connect 3 0 5 1;
#X connect 4 0 5 0;
#X connect 5 0 14 1;
#X connect 5 0 43 0;
#X connect 6 0 18 1;
#X connect 7 0 18 0;
#X connect 8 0 10 1;
#X connect 9 0 10 0;
#X connect 10 0 33 0;
#X connect 10 0 32 0;
#X connect 10 0 36 0;
#X connect 11 0 17 1;
#X connect 12 0 1 1;
#X connect 12 0 3 1;
#X connect 12 1 0 1;
#X connect 12 1 4 1;
#X connect 13 0 9 1;
#X connect 13 0 7 1;
#X connect 13 1 6 1;
#X connect 13 1 8 1;
#X connect 14 0 22 0;
#X connect 16 0 17 0;
#X connect 17 0 23 0;
#X connect 18 0 34 0;
#X connect 18 0 35 0;
#X connect 18 0 37 0;
#X connect 19 0 1 0;
#X connect 19 0 4 0;
#X connect 20 0 0 0;
#X connect 20 0 3 0;
#X connect 21 0 16 1;
#X connect 21 0 16 0;
#X connect 21 0 19 0;
#X connect 22 0 45 0;
#X connect 23 0 19 1;
#X connect 23 0 20 1;
#X connect 24 0 13 0;
#X connect 24 1 12 0;
#X connect 25 0 27 1;
#X connect 26 0 27 0;
#X connect 27 0 29 0;
#X connect 28 0 30 1;
#X connect 28 0 31 1;
#X connect 29 0 28 0;
#X connect 30 0 8 0;
#X connect 30 0 7 0;
#X connect 31 0 9 0;
#X connect 31 0 6 0;
#X connect 32 0 36 1;
#X connect 33 0 36 1;
#X connect 34 0 37 1;
#X connect 35 0 37 1;
#X connect 36 0 21 0;
#X connect 37 0 11 0;
#X connect 37 0 11 1;
#X connect 37 0 20 0;
#X connect 38 0 22 1;
#X connect 41 0 25 1;
#X connect 41 0 25 0;
#X connect 41 0 30 0;
#X connect 42 0 26 1;
#X connect 42 0 26 0;
#X connect 42 0 31 0;
#X connect 45 0 15 0;
#X connect 47 0 24 0;
#X connect 48 0 47 0;
#X connect 49 0 53 0;
#X connect 50 0 48 0;
#X connect 51 0 50 1;
#X connect 52 0 50 0;
#X connect 53 0 52 0;
#X connect 53 1 51 0;
#X connect 54 0 53 0;
