#N canvas 279 124 1265 574 10;
#X obj 429 493 dac~, f 8;
#X obj 104 514 delwrite~ xx 111;
#X obj 309 297 vd~ xx;
#X obj 258 113 pack 0.1 5;
#X obj 159 93 del 5;
#X obj 225 155 line~;
#X obj 201 39 bng 15 250 50 0 empty empty empty 17 7 0 10 -262144 -1
-1;
#X obj 160 115 pack 0 5444;
#X obj 765 323 osc~;
#X floatatom 782 128 5 0 0 0 - - -, f 5;
#X obj 435 71 vsl 15 128 0 1 0 0 empty empty empty 0 -9 0 10 -262144
-1 -1 8500 1;
#X obj 457 72 vsl 15 128 0 1 0 0 empty empty empty 0 -9 0 10 -262144
-1 -1 7500 1;
#X obj 482 72 vsl 15 128 0 1 0 0 empty empty empty 0 -9 0 10 -262144
-1 -1 11300 1;
#X obj 538 73 vsl 15 128 0 1 0 0 empty empty empty 0 -9 0 10 -262144
-1 -1 9000 1;
#X obj 510 72 vsl 15 128 0 1 0 0 empty empty empty 0 -9 0 10 -262144
-1 -1 4700 1;
#X obj 562 75 vsl 15 128 0 1 0 0 empty empty empty 0 -9 0 10 -262144
-1 -1 6800 1;
#X obj 594 73 vsl 15 128 0 1 0 0 empty empty empty 0 -9 0 10 -262144
-1 -1 8400 1;
#X obj 526 427 pack 0 10;
#X obj 528 457 line~;
#X obj 445 452 *~;
#X obj 625 244 * 440;
#X floatatom 378 220 5 0 0 0 - - -, f 5;
#X obj 447 317 line~;
#X obj 380 292 pack 0 110;
#X obj 453 350 *~;
#X obj 574 312 line~;
#X obj 629 215 *;
#X obj 374 187 * 0.5;
#X obj 188 472 *~;
#X obj 766 262 line~;
#X obj 573 285 pack 0 50;
#X obj 765 235 pack 0 50;
#X obj 672 397 line~;
#X obj 458 406 +~;
#X obj 670 371 pack 0 50;
#X obj 64 104 phasor~;
#X obj 206 369 lop~ 5000;
#X obj 332 400 + 12000;
#X obj 331 367 * -5000;
#X obj 773 195 + 1;
#X obj 661 336 * 45;
#X obj 593 392 +~ 5;
#X obj 875 254 t f f;
#X obj 851 325 * 3.14159;
#X obj 859 521 tabwrite additive;
#X msg 881 87 2048;
#X obj 863 292 / 1024;
#X obj 926 100 table additive 2051;
#X obj 924 65 table saw 2051;
#X obj 1016 499 tabwrite saw;
#X obj 1023 451 unpack;
#X obj 875 379 * 2;
#X obj 906 383 * 3;
#X obj 880 123 until;
#X obj 879 467 +;
#X obj 851 352 t f f f;
#X obj 862 492 +;
#X obj 842 439 * 0.5;
#X obj 884 437 * 0.2;
#X obj 880 194 + 1;
#X obj 881 163 f;
#X obj 916 435 * 0.5;
#X msg 930 162 0;
#X obj 907 407 sin;
#X obj 876 402 sin;
#X obj 845 398 sin;
#X obj 1038 302 / 2048;
#X obj 1050 264 t f f;
#X obj 1027 402 tabwrite saw;
#X obj 1009 346 f 0.5;
#X obj 1016 367 -;
#X obj 1024 326 t b f;
#X msg 1054 437 0.5 0 \, 0.5 2049 \, -0.5 2059;
#X obj 78 240 tabread4~ saw;
#X obj 184 241 tabread4~ additive;
#X obj 83 169 +~ 1;
#X obj 60 142 *~ 2048;
#X obj 120 281 *~;
#X obj 211 179 t b f;
#X obj 222 262 -;
#X obj 183 285 *~;
#X obj 209 204 f 1;
#X obj 127 319 +~;
#X obj 81 55 osc~;
#X floatatom 79 24 5 0 0 0 - - -, f 5;
#X obj 84 76 *~ 20;
#X obj 127 27 * 220;
#X obj 281 399 * 0.3;
#X obj 274 427 +~ 0.65;
#X floatatom 591 451 5 0 0 0 - - -, f 5;
#X obj 499 224 * 1440;
#X obj 547 247 *;
#X obj 865 18 loadbang;
#X obj 505 256 + 220;
#X connect 2 0 19 0;
#X connect 2 0 36 0;
#X connect 3 0 5 0;
#X connect 4 0 7 0;
#X connect 6 0 4 0;
#X connect 6 0 3 0;
#X connect 7 0 5 0;
#X connect 8 0 24 0;
#X connect 9 0 39 0;
#X connect 10 0 78 0;
#X connect 11 0 38 0;
#X connect 11 0 87 0;
#X connect 12 0 27 0;
#X connect 13 0 26 1;
#X connect 13 0 26 0;
#X connect 14 0 91 1;
#X connect 14 0 91 0;
#X connect 15 0 40 0;
#X connect 16 0 86 0;
#X connect 17 0 18 0;
#X connect 18 0 19 1;
#X connect 19 0 0 1;
#X connect 19 0 0 0;
#X connect 20 0 9 0;
#X connect 21 0 23 0;
#X connect 22 0 24 1;
#X connect 23 0 22 0;
#X connect 24 0 33 0;
#X connect 25 0 35 0;
#X connect 26 0 20 0;
#X connect 27 0 21 0;
#X connect 28 0 1 0;
#X connect 29 0 8 0;
#X connect 30 0 25 0;
#X connect 31 0 29 0;
#X connect 32 0 41 0;
#X connect 33 0 2 0;
#X connect 34 0 32 0;
#X connect 35 0 76 0;
#X connect 36 0 28 0;
#X connect 37 0 36 1;
#X connect 38 0 37 0;
#X connect 39 0 31 0;
#X connect 40 0 34 0;
#X connect 41 0 33 1;
#X connect 42 0 46 0;
#X connect 42 1 44 1;
#X connect 43 0 55 0;
#X connect 45 0 53 0;
#X connect 46 0 43 0;
#X connect 50 0 49 0;
#X connect 50 1 49 1;
#X connect 51 0 64 0;
#X connect 52 0 63 0;
#X connect 53 0 60 0;
#X connect 54 0 56 1;
#X connect 55 0 65 0;
#X connect 55 1 51 0;
#X connect 55 2 52 0;
#X connect 56 0 44 0;
#X connect 57 0 56 0;
#X connect 58 0 54 0;
#X connect 59 0 60 1;
#X connect 59 0 42 0;
#X connect 59 0 67 0;
#X connect 60 0 59 0;
#X connect 61 0 54 1;
#X connect 62 0 60 1;
#X connect 63 0 61 0;
#X connect 64 0 58 0;
#X connect 65 0 57 0;
#X connect 66 0 71 0;
#X connect 67 0 66 0;
#X connect 67 1 68 1;
#X connect 69 0 70 0;
#X connect 70 0 68 0;
#X connect 71 0 69 0;
#X connect 71 1 70 1;
#X connect 72 0 50 0;
#X connect 73 0 77 0;
#X connect 74 0 80 0;
#X connect 75 0 73 0;
#X connect 75 0 74 0;
#X connect 76 0 75 0;
#X connect 77 0 82 0;
#X connect 78 0 81 0;
#X connect 78 1 79 1;
#X connect 78 1 77 1;
#X connect 79 0 80 1;
#X connect 80 0 82 1;
#X connect 81 0 79 0;
#X connect 82 0 1 0;
#X connect 83 0 85 0;
#X connect 84 0 83 0;
#X connect 84 0 85 1;
#X connect 85 0 35 0;
#X connect 86 0 84 0;
#X connect 87 0 88 0;
#X connect 88 0 28 1;
#X connect 89 0 17 0;
#X connect 90 0 93 0;
#X connect 91 0 90 0;
#X connect 92 0 45 0;
#X connect 93 0 30 0;
